<?xml version="1.0" encoding="utf-8"?>
<!-- Generator: Adobe Illustrator 16.0.0, SVG Export Plug-In . SVG Version: 6.00 Build 0)  -->
<!DOCTYPE svg PUBLIC "-//W3C//DTD SVG 1.1//EN" "http://www.w3.org/Graphics/SVG/1.1/DTD/svg11.dtd">
<svg version="1.1" id="Layer_1" xmlns="http://www.w3.org/2000/svg" xmlns:xlink="http://www.w3.org/1999/xlink" x="0px" y="0px"
	 width="20px" height="20px" viewBox="0 0 20 20" enable-background="new 0 0 20 20" xml:space="preserve">
<path fill="#120E5B" d="M18.475,10.358V9.343H7.404v0.898C6.734,10.108,6.458,9.891,5.768,9.78V9.156H3.309V8.032h0.309V7.673h-2.93
	v0.359h0.198v1.125H0.687v0.551c-0.193,0-0.396,0-0.611,0c0,1.381,0.959,2.878,0.959,2.878H18.03
	c1.038-0.614,1.632-1.367,1.882-2.227H18.475L18.475,10.358z M1.634,8.848H1.083v-0.74h0.552V8.848L1.634,8.848z M2.373,8.848H1.821
	v-0.74h0.551V8.848z M3.111,8.848H2.56v-0.74h0.551V8.848L3.111,8.848z M7.603,9.542h10.675v0.816H8.851
	c-0.54,0-0.934-0.033-1.249-0.081V9.542z"/>
<line fill="none" stroke="#120E5B" stroke-width="1.3061" stroke-miterlimit="10" x1="7.503" y1="11.044" x2="7.503" y2="9.443"/>
<line fill="none" stroke="#120E5B" stroke-width="1.3061" stroke-miterlimit="10" x1="18.377" y1="11.044" x2="18.377" y2="9.443"/>
</svg>
