<?xml version="1.0" encoding="utf-8"?>
<!-- Generator: Adobe Illustrator 16.0.0, SVG Export Plug-In . SVG Version: 6.00 Build 0)  -->
<!DOCTYPE svg PUBLIC "-//W3C//DTD SVG 1.1//EN" "http://www.w3.org/Graphics/SVG/1.1/DTD/svg11.dtd">
<svg version="1.1" id="Layer_1" xmlns="http://www.w3.org/2000/svg" xmlns:xlink="http://www.w3.org/1999/xlink" x="0px" y="0px"
	 width="64px" height="64px" viewBox="0 0 64 64" enable-background="new 0 0 64 64" xml:space="preserve">
<g>
	<g>
		<path fill="#fff" d="M36.593,47.396c0-2.611,0.655-5.117,1.883-7.352c-1.738-0.975-3.017-1.609-3.555-1.871
			c-0.168-0.078-0.261-0.246-0.261-0.428v-10.26c1.294-0.857,2.155-2.323,2.155-3.987V12.865c0-5.286-4.311-9.585-9.64-9.585h-1.149
			h-1.15c-5.316,0-9.644,4.286-9.644,9.585v10.634c0,1.664,0.862,3.13,2.156,3.987v10.26c0,0.182-0.105,0.35-0.262,0.428
			c-1.477,0.717-8.622,4.299-15.248,9.715C0.678,48.861,0,50.328,0,51.875v7.285h26.011H42.12c-0.351-0.283-0.678-0.596-1.005-0.92
			C38.203,55.34,36.593,51.486,36.593,47.396z M50.989,34.855c-7.183,0-13.013,5.795-13.013,12.93
			c0,7.141,5.83,12.936,13.013,12.936c7.18,0,13.011-5.795,13.011-12.936C64,40.65,58.183,34.855,50.989,34.855z M58.599,49.674
			h-5.715v5.678h-3.791v-5.678h-5.716v-3.768h5.716v-5.682h3.791v5.682h5.715V49.674z"/>
	</g>
</g>
</svg>
