<?xml version="1.0" encoding="utf-8"?>
<!-- Generator: Adobe Illustrator 16.0.0, SVG Export Plug-In . SVG Version: 6.00 Build 0)  -->
<!DOCTYPE svg PUBLIC "-//W3C//DTD SVG 1.1//EN" "http://www.w3.org/Graphics/SVG/1.1/DTD/svg11.dtd">
<svg version="1.1" id="Layer_1" xmlns="http://www.w3.org/2000/svg" xmlns:xlink="http://www.w3.org/1999/xlink" x="0px" y="0px"
	 width="20px" height="20px" viewBox="0 0 20 20" enable-background="new 0 0 20 20" xml:space="preserve">
<g>
	<rect x="10.725" y="9.065" fill-rule="evenodd" clip-rule="evenodd" fill="#120E5B" width="0.265" height="1.587"/>
	<rect x="11.52" y="9.065" fill-rule="evenodd" clip-rule="evenodd" fill="#120E5B" width="0.266" height="1.587"/>
	<rect x="12.312" y="9.065" fill-rule="evenodd" clip-rule="evenodd" fill="#120E5B" width="0.266" height="1.587"/>
	<rect x="9.93" y="9.065" fill-rule="evenodd" clip-rule="evenodd" fill="#120E5B" width="0.266" height="1.587"/>
	<rect x="9.137" y="9.065" fill-rule="evenodd" clip-rule="evenodd" fill="#120E5B" width="0.266" height="1.587"/>
	<path fill-rule="evenodd" clip-rule="evenodd" fill="#120E5B" d="M3.434,5.267c0-0.089,0.063-0.163,0.138-0.163h0.589
		c0.076,0,0.139,0.073,0.139,0.163v0.955c0,0.002,0,0.003,0,0.005c0,0.003,0,0.005,0,0.005v8.894h0.312V6.385h6.104l0.002,1.094
		h-0.028L8.967,8.537H8.476v2.649h4.764V8.537h-0.494l-1.717-1.058l-0.002-1.095h1.654c0.25,0,0.449-0.214,0.449-0.476
		s-0.199-0.476-0.449-0.476H9.437L4.31,4.243c-0.034-0.227-0.219-0.4-0.442-0.4c-0.235,0-0.425,0.192-0.447,0.434L1.412,5.433H0.565
		c-0.247,0-0.45,0.214-0.45,0.476s0.203,0.477,0.45,0.477h0.119v0.514c0,0.263,0.202,0.476,0.45,0.476h0.589
		c0.247,0,0.45-0.213,0.45-0.476V6.385h0.948v8.742h0.312V5.267z M12.977,8.802v2.117H8.741V8.802H12.977z M12.24,8.537H9.472
		l1.29-0.795h0.189L12.24,8.537z M12.682,5.744c0.078,0,0.139,0.072,0.139,0.164c0,0.09-0.061,0.164-0.139,0.164h-8.07V5.744H12.682
		z M4.317,4.565l3.788,0.868H4.612V5.267c0-0.203-0.124-0.376-0.295-0.442V4.565z M3.728,4.318c0-0.09,0.062-0.164,0.14-0.164
		c0.076,0,0.138,0.074,0.138,0.164v0.474H3.728V4.318z M1.861,6.899c0,0.091-0.062,0.164-0.138,0.164H1.134
		c-0.078,0-0.139-0.073-0.139-0.164V6.385h0.866V6.899z M3.123,6.072H0.565c-0.075,0-0.137-0.074-0.137-0.164
		c0-0.092,0.062-0.164,0.137-0.164h2.558V6.072z M3.417,4.825C3.246,4.891,3.121,5.064,3.121,5.267v0.166H2.037l1.38-0.794V4.825z"
		/>
</g>
<g>
	<g>
		<path fill-rule="evenodd" clip-rule="evenodd" fill="#120E5B" d="M7.189,16.51h3.627v-2.016H7.189V16.51z M7.391,14.695h3.224
			v1.612H7.391V14.695z"/>
		<rect x="8.902" y="14.896" fill-rule="evenodd" clip-rule="evenodd" fill="#120E5B" width="0.2" height="1.209"/>
		<rect x="9.507" y="14.896" fill-rule="evenodd" clip-rule="evenodd" fill="#120E5B" width="0.199" height="1.209"/>
		<rect x="10.11" y="14.896" fill-rule="evenodd" clip-rule="evenodd" fill="#120E5B" width="0.202" height="1.209"/>
		<rect x="8.297" y="14.896" fill-rule="evenodd" clip-rule="evenodd" fill="#120E5B" width="0.201" height="1.209"/>
		<rect x="7.693" y="14.896" fill-rule="evenodd" clip-rule="evenodd" fill="#120E5B" width="0.202" height="1.209"/>
	</g>
	<g>
		<path fill-rule="evenodd" clip-rule="evenodd" fill="#120E5B" d="M10.868,16.51h3.627v-2.017h-3.627V16.51z M11.069,14.695h3.225
			v1.611h-3.225V14.695z"/>
		<rect x="12.581" y="14.896" fill-rule="evenodd" clip-rule="evenodd" fill="#120E5B" width="0.199" height="1.209"/>
		<rect x="13.187" y="14.896" fill-rule="evenodd" clip-rule="evenodd" fill="#120E5B" width="0.199" height="1.209"/>
		<rect x="13.788" y="14.896" fill-rule="evenodd" clip-rule="evenodd" fill="#120E5B" width="0.203" height="1.209"/>
		<rect x="11.976" y="14.896" fill-rule="evenodd" clip-rule="evenodd" fill="#120E5B" width="0.201" height="1.209"/>
		<rect x="11.372" y="14.896" fill-rule="evenodd" clip-rule="evenodd" fill="#120E5B" width="0.201" height="1.209"/>
	</g>
	<g>
		<path fill-rule="evenodd" clip-rule="evenodd" fill="#120E5B" d="M7.179,14.434h3.628v-2.016H7.179V14.434z M7.38,12.619h3.224
			v1.611H7.38V12.619z"/>
		<rect x="8.892" y="12.82" fill-rule="evenodd" clip-rule="evenodd" fill="#120E5B" width="0.2" height="1.209"/>
		<rect x="9.497" y="12.82" fill-rule="evenodd" clip-rule="evenodd" fill="#120E5B" width="0.199" height="1.209"/>
		<rect x="10.1" y="12.82" fill-rule="evenodd" clip-rule="evenodd" fill="#120E5B" width="0.201" height="1.209"/>
		<rect x="8.287" y="12.82" fill-rule="evenodd" clip-rule="evenodd" fill="#120E5B" width="0.201" height="1.209"/>
		<rect x="7.684" y="12.82" fill-rule="evenodd" clip-rule="evenodd" fill="#120E5B" width="0.201" height="1.209"/>
	</g>
	<g>
		<path fill-rule="evenodd" clip-rule="evenodd" fill="#120E5B" d="M10.879,14.418h3.626v-2.016h-3.626V14.418z M11.08,12.604h3.225
			v1.611H11.08V12.604z"/>
		<rect x="12.592" y="12.805" fill-rule="evenodd" clip-rule="evenodd" fill="#120E5B" width="0.199" height="1.209"/>
		<rect x="13.197" y="12.805" fill-rule="evenodd" clip-rule="evenodd" fill="#120E5B" width="0.199" height="1.209"/>
		<rect x="13.799" y="12.805" fill-rule="evenodd" clip-rule="evenodd" fill="#120E5B" width="0.203" height="1.209"/>
		<rect x="11.986" y="12.805" fill-rule="evenodd" clip-rule="evenodd" fill="#120E5B" width="0.201" height="1.209"/>
		<rect x="11.383" y="12.805" fill-rule="evenodd" clip-rule="evenodd" fill="#120E5B" width="0.201" height="1.209"/>
	</g>
</g>
<path fill="#120E5B" d="M15.284,15.796l-0.716,0.744H9.535H6.389v-0.744h0.729v-0.744H4.43h-0.73H1.01v0.744v0.744H0.697H0.523H0
	v0.697v1.354v0.133v0.58C0,19.688,0.312,20,0.697,20h3.317h5.521h7.244L20,15.796H15.284z"/>
<path fill="#120E5B" d="M4.3,15.127"/>
</svg>
