<?xml version="1.0" encoding="utf-8"?>
<!-- Generator: Adobe Illustrator 17.0.0, SVG Export Plug-In . SVG Version: 6.00 Build 0)  -->
<!DOCTYPE svg PUBLIC "-//W3C//DTD SVG 1.1//EN" "http://www.w3.org/Graphics/SVG/1.1/DTD/svg11.dtd">
<svg version="1.1" id="Layer_1" xmlns="http://www.w3.org/2000/svg" xmlns:xlink="http://www.w3.org/1999/xlink" x="0px" y="0px"
	 width="32px" height="32px" viewBox="0 0 32 32" enable-background="new 0 0 32 32" xml:space="preserve">
<path fill="#211C57" d="M31.12,20.244h-1.461v-3.203c0-0.487-0.393-0.88-0.88-0.88h-1.386v-3.203c0-0.487-0.4-0.88-0.88-0.88h-4.527
	c-0.487,0-0.88,0.393-0.88,0.88v3.203H19.72c-0.487,0-0.88,0.393-0.88,0.88v3.203h-2.135c-0.487,0-0.88,0.393-0.88,0.88v1.249
	h-4.639V17.49c0-0.487-0.4-0.88-0.88-0.88h-2.16v-3.971l6.762-7.779v5.051c-1.136,0.375-1.96,1.442-1.96,2.703
	c0,1.567,1.274,2.841,2.841,2.841c1.561,0,2.841-1.274,2.841-2.841c0-0.487-0.393-0.88-0.88-0.88s-0.88,0.393-0.88,0.88
	c0,0.593-0.487,1.08-1.08,1.08s-1.08-0.487-1.08-1.08s0.487-1.074,1.08-1.074c0.487,0,0.88-0.393,0.88-0.88V2.506
	c-0.044-0.899-1.049-1.149-1.548-0.581l-8.522,9.802c-0.144,0.156-0.219,0.368-0.219,0.574v4.308H4.224
	c-0.487,0-0.88,0.393-0.88,0.88v2.753H1.164c-0.618,0.025-1.105,0.637-0.768,1.311l3.677,6.599C4.23,28.429,4.53,28.61,4.842,28.61
	h18.262c0.206,0,0.4-0.069,0.562-0.2l8.01-6.599C32.325,21.224,31.926,20.256,31.12,20.244z M27.899,17.921v2.323h-2.766v-2.323
	H27.899z M22.867,13.832h2.766v2.323h-2.766V13.832z M20.6,17.921h2.766v2.323H20.6V17.921z M5.104,18.371h4.32v3.996h-0.45
	l-1.954-1.879c-0.162-0.156-0.381-0.243-0.612-0.243H5.104V18.371z M22.792,26.837H5.36l-2.697-4.839h3.384l1.954,1.879
	c0.162,0.156,0.381,0.243,0.612,0.243h8.092c0.487,0,0.88-0.393,0.88-0.88v-1.249h11.082L22.792,26.837z"/>
</svg>
